<?xml version="1.0" encoding="UTF-8"?>
<svg width="48px" height="48px" viewBox="0 0 48 48" version="1.1" xmlns="http://www.w3.org/2000/svg" xmlns:xlink="http://www.w3.org/1999/xlink">
    <!-- Generator: Sketch 52.5 (67469) - http://www.bohemiancoding.com/sketch -->
    <title>Icon</title>
    <desc>Created with Sketch.</desc>
    <g id="ScuBrasil" stroke="none" stroke-width="1" fill="none" fill-rule="evenodd">
        <g id="Desktop-HD" transform="translate(-697.000000, -535.000000)" fill="#FFFFFF">
            <g id="Support" transform="translate(596.000000, 535.000000)">
                <g id="Icon" transform="translate(101.000000, 0.000000)">
                    <path d="M38.7692308,41.8934911 L36.982897,36.5915148 C36.3586447,34.7404793 34.7659911,33.3741479 32.8245588,33.0245503 L27.6677256,32.0963609 L27.6677256,31.7009645 C28.5651365,31.1857278 29.3460306,30.4964556 29.967968,29.6804734 L31.525898,29.6804734 C32.8021814,29.6804734 33.8408014,28.6530533 33.8408014,27.3905325 L33.8408014,18.2307692 C33.8408014,12.7593373 29.3406292,8.30769231 23.8095533,8.30769231 C18.2784774,8.30769231 13.7783051,12.7593373 13.7783051,18.2307692 L13.7783051,23.5739645 C13.7783051,25.0456331 14.836216,26.276858 16.2390475,26.5638639 C16.6719344,28.7576272 18.0577899,30.6140059 19.9513809,31.7009645 L19.9513809,32.0963609 L14.7937761,33.0245503 C12.8531154,33.3741479 11.2596902,34.7404793 10.6362096,36.5915148 L10.3275558,37.5082544 L7.69936876,34.9084083 C7.39843132,34.610716 7.39843132,34.1260118 7.69936876,33.8283195 L10.7473249,30.8139941 L5.02642695,25.154787 L1.58185067,28.5622189 C0.561749896,29.5713195 -2.48689958e-14,30.9132249 -2.48689958e-14,32.3406213 C-2.48689958e-14,33.7680178 0.561749896,35.1091598 1.58185067,36.1182604 L12.0104906,46.4344438 C13.0305913,47.4435444 14.3871247,48 15.8300812,48 C17.2730377,48 18.6287994,47.4435444 19.6249795,46.4573432 L23.383611,43.0506746 L22.2114983,41.8934911 L38.7692308,41.8934911 Z M32.2975325,27.3905325 C32.2975325,27.8118817 31.9510686,28.1538462 31.525898,28.1538462 L30.8769534,28.1538462 C31.1007274,27.6492959 31.270487,27.1172663 31.3800591,26.5638639 C31.7103186,26.495929 32.0143426,26.3661657 32.2975325,26.2028166 L32.2975325,27.3905325 Z M31.525898,24.8883905 L31.525898,22.2595385 C31.9850205,22.5244083 32.2975325,23.0114024 32.2975325,23.5739645 C32.2975325,24.1365266 31.9850205,24.6235207 31.525898,24.8883905 Z M16.0932085,24.8883905 C15.634086,24.6235207 15.3215741,24.1365266 15.3215741,23.5739645 C15.3215741,23.0114024 15.634086,22.5244083 16.0932085,22.2595385 L16.0932085,24.8883905 Z M16.0932085,19.7573964 L16.0932085,20.6291006 C15.8185067,20.7000888 15.5607808,20.8069527 15.3215741,20.9451124 L15.3215741,18.2307692 C15.3215741,13.6012722 19.1295902,9.83431953 23.8095533,9.83431953 C28.4895163,9.83431953 32.2975325,13.6012722 32.2975325,18.2307692 L32.2975325,20.9451124 C32.0583258,20.8069527 31.8005999,20.6993254 31.525898,20.6291006 L31.525898,19.7573964 L30.7542635,19.7573964 C28.4725404,19.7573964 26.3273965,18.8780592 24.7131372,17.2819704 L23.8095533,16.3881302 L22.9059693,17.2819704 C21.29171,18.8780592 19.1465662,19.7573964 16.864843,19.7573964 L16.0932085,19.7573964 Z M17.6364775,25.1005917 L17.6364775,21.2550178 C19.9536958,21.0825089 22.1142723,20.1367633 23.8095533,18.5422012 C25.5048342,20.1367633 27.6654107,21.0832722 29.982629,21.2550178 L29.982629,25.1005917 C29.982629,26.213503 29.6755185,27.2546627 29.1477205,28.1538462 L23.8095533,28.1538462 L23.8095533,29.6804734 L27.8791535,29.6804734 C26.7911489,30.6277456 25.3690265,31.2071006 23.8095533,31.2071006 C20.4058736,31.2071006 17.6364775,28.467568 17.6364775,25.1005917 Z M26.1244567,32.3818402 L26.1244567,32.417716 L23.8095533,34.7076568 L21.4946498,32.417716 L21.4946498,32.3818402 C22.2261593,32.6093077 23.0031952,32.7337278 23.8095533,32.7337278 C24.6159113,32.7337278 25.3929472,32.6093077 26.1244567,32.3818402 Z M12.0992285,37.073929 C12.5444616,35.7518698 13.6826225,34.7755917 15.0692496,34.5252249 L20.4629746,33.5558166 L23.8095533,36.8663077 L27.1553603,33.5565799 L32.5483137,34.5259882 C33.9349408,34.776355 35.0731016,35.7518698 35.5183347,37.0746923 L36.6287167,40.3668639 L20.6682293,40.3668639 L17.6627131,37.3937574 L14.3230791,40.3821302 C14.0321729,40.671426 13.5236658,40.671426 13.2319879,40.3821302 L11.5467382,38.7150533 L12.0992285,37.073929 Z M5.02565532,27.3134379 L8.564371,30.8139941 L7.72637597,31.6429527 L4.18766028,28.1423964 L5.02565532,27.3134379 Z M18.5562658,45.356645 C17.8278428,46.0756864 16.8586699,46.4733728 15.8285379,46.4733728 C14.7984059,46.4733728 13.829233,46.0756864 13.1000384,45.3551183 L2.67139854,35.0396982 C1.9429756,34.3191302 1.54172567,33.3604083 1.54172567,32.3413846 C1.54172567,31.3215976 1.9429756,30.3628757 2.67139854,29.6423077 L3.0957975,29.2224852 L6.63451319,32.7230414 L6.60673435,32.7505207 C5.70469365,33.6435976 5.70469365,35.0961834 6.60673435,35.9892604 L12.1401251,41.4629822 C12.5776419,41.8950178 13.1586826,42.1339349 13.7775335,42.1339349 C14.3963843,42.1339349 14.9774251,41.8957811 15.3863914,41.4896982 L15.444264,41.4385562 L18.999184,44.955142 L18.5562658,45.356645 Z M20.1381164,43.9216154 L16.5909128,40.4126627 L17.6102419,39.5012663 L21.1512725,43.0041124 L20.1381164,43.9216154 Z" id="Shape" fill-rule="nonzero"></path>
                    <path d="M45.6461538,-6.21724894e-15 L34.6615385,-6.21724894e-15 C33.3637846,-6.21724894e-15 32.3076923,1.0544579 32.3076923,2.35020334 L32.3076923,8.61741224 C32.3076923,9.91315768 33.3637846,10.9676156 34.6615385,10.9676156 L36.7572462,10.9676156 L35.9459538,15.6923077 L43.5174923,10.9676156 L45.6461538,10.9676156 C46.9439077,10.9676156 48,9.91315768 48,8.61741224 L48,2.35020334 C48,1.0544579 46.9439077,-6.21724894e-15 45.6461538,-6.21724894e-15 Z M46.4307692,8.61741224 C46.4307692,9.04906625 46.0784769,9.40081335 45.6461538,9.40081335 L43.0671231,9.40081335 L38.0840308,12.5101324 L38.6183538,9.40081335 L34.6615385,9.40081335 C34.2292154,9.40081335 33.8769231,9.04906625 33.8769231,8.61741224 L33.8769231,2.35020334 C33.8769231,1.91854933 34.2292154,1.56680223 34.6615385,1.56680223 L45.6461538,1.56680223 C46.0784769,1.56680223 46.4307692,1.91854933 46.4307692,2.35020334 L46.4307692,8.61741224 Z" id="Shape" fill-rule="nonzero"></path>
                    <rect id="Rectangle" x="36" y="2.76923077" width="9.23076923" height="1.84615385"></rect>
                    <rect id="Rectangle" x="36" y="6.46153846" width="6.46153846" height="1.84615385"></rect>
                    <rect id="Rectangle" x="43.3846154" y="6.46153846" width="1.84615385" height="1.84615385"></rect>
                    <path d="M24.0071436,2.76923077 C13.8416272,2.76923077 5.08509221,9.67440789 2.80862651,19.3063583 L1.3342921,16.8928316 L5.15143483e-14,17.6790041 L2.73471529,22.1538462 L7.29153675,19.4683297 L6.49096149,18.1580422 L4.38254658,19.4003323 C6.58743509,10.5889351 14.6562067,4.29726288 24.0071436,4.29726288 C26.0509834,4.29726288 28.0675928,4.59522914 30.0009548,5.18352151 L30.4615385,3.72425084 C28.378798,3.09011751 26.207364,2.76923077 24.0071436,2.76923077 Z" id="Path"></path>
                    <path d="M48,17.4728066 L43.2818623,14.7692308 L40.4511408,19.274934 L41.8326683,20.0663934 L43.2423901,17.8227716 C43.9843066,19.8956412 44.3637232,22.0638859 44.3637232,24.2859714 C44.3637232,28.8601294 42.7042791,33.3319899 39.6923077,36.87702 L40.9433351,37.8461538 C44.1881121,34.0280741 45.9748339,29.2116327 45.9748339,24.2859714 C45.9748339,21.9331298 45.5776951,19.6356672 44.8035564,17.4358872 L47.1710835,18.7919054 L48,17.4728066 Z" id="Path"></path>
                </g>
            </g>
        </g>
    </g>
</svg>